<svg width="18" height="18" viewBox="0 0 18 18" fill="none" xmlns="http://www.w3.org/2000/svg">
<g clip-path="url(#clip0)">
<path d="M11.116 3.02325L1.21212 12.9278C1.16229 12.9778 1.12631 13.0409 1.10918 13.1087L0.0114342 17.5148C-0.0214026 17.6475 0.0175732 17.7885 0.11437 17.8853C0.187611 17.9586 0.287406 17.9991 0.389485 17.9991C0.420752 17.9991 0.452732 17.9953 0.483855 17.9874L4.88998 16.8895C4.95865 16.8724 5.02104 16.8365 5.07087 16.7867L14.9756 6.88286L11.116 3.02325Z" fill="#FFE6EA"/>
<path d="M17.4293 1.67282L16.3268 0.570359C15.59 -0.166469 14.3058 -0.165756 13.5698 0.570359L12.2194 1.92081L16.0788 5.78027L17.4293 4.42982C17.7973 4.06191 18 3.57221 18 3.05139C18 2.53057 17.7973 2.04087 17.4293 1.67282Z" fill="#FFE6EA"/>
</g>
<defs>
<clipPath id="clip0">
<rect width="18" height="18" fill="white"/>
</clipPath>
</defs>
</svg>
