<svg width="20" height="20" viewBox="0 0 20 20" fill="none" xmlns="http://www.w3.org/2000/svg">
<path d="M18.98 8.48388C18.5761 6.58349 17.505 4.8538 15.9636 3.61356C14.3873 2.35236 12.4284 1.66569 10.4097 1.66669C8.03001 1.66669 5.80735 2.58348 4.14564 4.24833C2.53978 5.85927 1.6597 7.98622 1.66673 10.2358C1.66678 11.8852 2.15099 13.4982 3.05931 14.8749L3.22923 15.1112L2.29173 19.1667L6.7761 18.0511C6.7761 18.0511 6.86595 18.0811 6.93235 18.1065C6.99876 18.1319 7.57024 18.3511 8.17649 18.5206C8.6804 18.6612 9.72884 18.8722 10.5503 18.8722C12.8804 18.8722 15.0562 17.9698 16.6765 16.3308C18.2824 14.7046 19.1667 12.5425 19.1667 10.2405C19.1669 9.65001 19.1043 9.06116 18.98 8.48388V8.48388Z" fill="#FFE6EA"/>
<line x1="10.5416" y1="5.83331" x2="10.5416" y2="15" stroke="#27496D" stroke-width="1.5"/>
<line x1="5.83331" y1="10.2916" x2="15" y2="10.2916" stroke="#27496D" stroke-width="1.5"/>
</svg>
