<svg width="23" height="23" viewBox="0 0 23 23" fill="none" xmlns="http://www.w3.org/2000/svg">
<g clip-path="url(#clip0)">
<path d="M6.26664 7.66282C8.17613 7.66282 9.72407 6.11487 9.72407 4.20538C9.72407 2.2959 8.17613 0.747952 6.26664 0.747952C4.35715 0.747952 2.8092 2.2959 2.8092 4.20538C2.8092 6.11487 4.35715 7.66282 6.26664 7.66282Z" fill="#FFE6EA"/>
<path d="M11.0862 11.6537C9.93684 10.2717 8.20466 9.39154 6.2666 9.39154C2.80565 9.39154 0 12.1972 0 15.6581H7.0818L11.0862 11.6537Z" fill="#FFE6EA"/>
<path d="M17.3088 7.8758L19.5366 5.648L23.0001 9.11143L20.7723 11.3392L17.3088 7.8758Z" fill="#FFE6EA"/>
<path d="M6.39612 22.252L10.3413 21.1004L7.54779 18.3069L6.39612 22.252Z" fill="#FFE6EA"/>
<path d="M8.43506 16.7495L16.0865 9.09811L19.5499 12.5615L11.8985 20.213L8.43506 16.7495Z" fill="#FFE6EA"/>
</g>
<defs>
<clipPath id="clip0">
<rect width="23" height="23" fill="white"/>
</clipPath>
</defs>
</svg>
