<svg width="23" height="23" viewBox="0 0 23 23" fill="none" xmlns="http://www.w3.org/2000/svg">
<path d="M20.9432 9.96409C20.905 9.87257 20.8502 9.78931 20.7805 9.71955L18.531 7.47007C18.2377 7.17754 17.7637 7.17754 17.4704 7.47007C17.1771 7.76334 17.1771 8.23813 17.4704 8.53066L18.4403 9.50051H14.2503C13.8355 9.50051 13.5002 9.83653 13.5002 10.2506C13.5002 10.6646 13.8355 11.0006 14.2503 11.0006H18.4402L17.4704 11.9705C17.1771 12.2637 17.1771 12.7385 17.4704 13.0311C17.6166 13.1781 17.8086 13.2509 18.0007 13.2509C18.1927 13.2509 18.3847 13.1781 18.531 13.0311L20.7805 10.7816C20.8502 10.7126 20.905 10.6293 20.9432 10.5371C21.019 10.3541 21.019 10.1471 20.9432 9.96409Z" fill="#FFE6EA"/>
<path d="M15.7512 12.5011C15.3365 12.5011 15.0012 12.8371 15.0012 13.2511V17.0015H12.0009V5.00029C12.0009 4.6695 11.7834 4.37698 11.4661 4.28173L8.86106 3.50016H15.0012V7.25055C15.0012 7.66459 15.3365 8.00061 15.7512 8.00061C16.166 8.00061 16.5013 7.66459 16.5013 7.25055V2.7501C16.5013 2.33602 16.166 2 15.7512 2H3.75006C3.72306 2 3.69905 2.01125 3.67282 2.01424C3.63755 2.018 3.60531 2.02398 3.57156 2.03224C3.4928 2.05249 3.42153 2.08326 3.3548 2.12524C3.33831 2.13575 3.31806 2.13649 3.3023 2.14848C3.29626 2.15302 3.29401 2.16128 3.28799 2.16578C3.20625 2.23026 3.138 2.30902 3.0885 2.40279C3.07798 2.42304 3.07573 2.44481 3.06751 2.4658C3.04349 2.52279 3.01726 2.57831 3.00826 2.64131C3.0045 2.66382 3.01125 2.68481 3.01051 2.70657C3.00977 2.72158 3 2.73508 3 2.75006V17.7516C3 18.1094 3.25276 18.4169 3.60306 18.4867L11.1038 19.9868C11.1526 19.9973 11.2021 20.0018 11.2508 20.0018C11.4226 20.0018 11.5913 19.9426 11.7263 19.8315C11.8996 19.689 12.0009 19.4768 12.0009 19.2517V18.5017H15.7512C16.166 18.5017 16.5013 18.1656 16.5013 17.7516V13.2511C16.5013 12.8371 16.166 12.5011 15.7512 12.5011Z" fill="#FFE6EA"/>
</svg>
